<?xml version="1.0" encoding="utf-8"?>
<!-- Generator: Adobe Illustrator 21.0.2, SVG Export Plug-In . SVG Version: 6.00 Build 0)  -->
<svg version="1.1" id="Layer_1" xmlns="http://www.w3.org/2000/svg" xmlns:xlink="http://www.w3.org/1999/xlink" x="0px" y="0px"
	 viewBox="0 0 500 500" style="enable-background:new 0 0 500 500;" xml:space="preserve">
<style type="text/css">
	.st0{fill:url(#SVGID_1_);}
	.st1{fill:none;stroke:#000000;stroke-miterlimit:10;}
	.st2{fill:#00C3DF;}
	.st3{fill:url(#SVGID_2_);}
	.st4{fill:none;stroke:#00CFED;stroke-miterlimit:10;}
	.st5{fill:none;stroke:#000000;stroke-miterlimit:10;stroke-dasharray:12,5;}
</style>
<g>
	<g>
		<linearGradient id="SVGID_1_" gradientUnits="userSpaceOnUse" x1="33.2" y1="251.55" x2="421.315" y2="251.55">
			<stop  offset="0" style="stop-color:#3DDEED"/>
			<stop  offset="1" style="stop-color:#3DDEED;stop-opacity:0"/>
		</linearGradient>
		<polygon class="st0" points="229,37.1 35.1,142.8 33.2,357.3 225.3,466 419.4,360.3 421.3,146 		"/>
	</g>
	<g>
		<polygon class="st1" points="229,37.1 35.1,142.8 33.2,357.3 225.3,466 419.4,360.3 421.3,146 		"/>
	</g>
</g>
<g>
	<g>
		<polygon class="st2" points="228.8,110.3 101.7,178.3 100.1,317.1 225.5,387.8 352.8,319.8 354.4,181 		"/>
	</g>
	<g>
		<polygon class="st1" points="228.8,110.3 101.7,178.3 100.1,317.1 225.5,387.8 352.8,319.8 354.4,181 		"/>
	</g>
</g>
<g>
	<g>
		<linearGradient id="SVGID_2_" gradientUnits="userSpaceOnUse" x1="157.3802" y1="249.05" x2="296.9271" y2="249.05">
			<stop  offset="0" style="stop-color:#3DDEED"/>
			<stop  offset="1" style="stop-color:#3DDEED;stop-opacity:0"/>
		</linearGradient>
		<polygon class="st3" points="227.2,172.5 157.4,210.8 157.4,287.3 227.2,325.6 296.9,287.5 296.9,210.8 		"/>
	</g>
	<g>
		<polygon class="st1" points="227.2,172.5 157.4,210.8 157.4,287.3 227.2,325.6 296.9,287.5 296.9,210.8 		"/>
	</g>
</g>
<g>
	<g>
		<line class="st1" x1="296.9" y1="210.8" x2="227.2" y2="249.1"/>
	</g>
</g>
<g>
	<g>
		<line class="st1" x1="227.2" y1="325.6" x2="227.2" y2="249.1"/>
	</g>
</g>
<g>
	<g>
		<line class="st1" x1="227.2" y1="249.1" x2="157.4" y2="210.8"/>
	</g>
</g>
<g>
	<g>
		<line class="st4" x1="467" y1="347.9" x2="466.4" y2="347.9"/>
	</g>
</g>
<g>
	<g>
		<line class="st1" x1="157.4" y1="287.3" x2="100.1" y2="317.1"/>
	</g>
</g>
<g>
	<g>
		<line class="st1" x1="352.8" y1="319.8" x2="296.9" y2="287.5"/>
	</g>
</g>
<g>
	<g>
		<line class="st1" x1="157.4" y1="210.8" x2="101.7" y2="178.3"/>
	</g>
</g>
<g>
	<g>
		<line class="st1" x1="354.4" y1="181" x2="296.9" y2="210.8"/>
	</g>
</g>
<g>
	<g>
		<line class="st5" x1="421.3" y1="144.7" x2="354.4" y2="181"/>
	</g>
</g>
<g>
	<g>
		<line class="st5" x1="419.4" y1="356.6" x2="352.8" y2="319.8"/>
	</g>
</g>
<g>
	<g>
		<line class="st5" x1="227.2" y1="325.6" x2="225.3" y2="461"/>
	</g>
</g>
<g>
	<g>
		<line class="st5" x1="100.1" y1="317.1" x2="33.2" y2="353.6"/>
	</g>
</g>
<g>
	<g>
		<line class="st5" x1="101.7" y1="178.3" x2="35.1" y2="141.5"/>
	</g>
</g>
<g>
	<g>
		<line class="st5" x1="229" y1="37.1" x2="227.2" y2="172.5"/>
	</g>
</g>
</svg>
