<?xml version="1.0" encoding="utf-8"?>
<!-- Generator: Adobe Illustrator 21.0.2, SVG Export Plug-In . SVG Version: 6.00 Build 0)  -->
<svg version="1.1" id="Layer_1" xmlns="http://www.w3.org/2000/svg" xmlns:xlink="http://www.w3.org/1999/xlink" x="0px" y="0px"
	 viewBox="0 0 471 458" style="enable-background:new 0 0 471 458;" xml:space="preserve">
<style type="text/css">
	.st0{fill:url(#SVGID_1_);}
	.st1{fill:none;stroke:#000000;stroke-width:3;stroke-miterlimit:10;}
	.st2{fill:#00C3DF;}
	.st3{fill:url(#SVGID_2_);}
	.st4{fill:none;stroke:#000000;stroke-width:3;stroke-miterlimit:10;stroke-dasharray:12,5;}
</style>
<title>fabricKube_logo</title>
<linearGradient id="SVGID_1_" gradientUnits="userSpaceOnUse" x1="96.45" y1="125.02" x2="484.55" y2="125.02" gradientTransform="matrix(1 0 0 -1 -55.45 353.47)">
	<stop  offset="0" style="stop-color:#3DDEED"/>
	<stop  offset="1" style="stop-color:#3DDEED;stop-opacity:0"/>
</linearGradient>
<polygon class="st0" points="236.8,14 42.9,119.7 41,334.2 233.1,442.9 427.2,337.2 429.1,122.9 "/>
<polygon class="st1" points="236.8,14 42.9,119.7 41,334.2 233.1,442.9 427.2,337.2 429.1,122.9 "/>
<polygon class="st2" points="236.6,87.2 109.5,155.2 107.9,294 233.3,364.7 360.6,296.7 362.2,157.9 "/>
<polygon class="st1" points="236.6,87.2 109.5,155.2 107.9,294 233.3,364.7 360.6,296.7 362.2,157.9 "/>
<linearGradient id="SVGID_2_" gradientUnits="userSpaceOnUse" x1="220.65" y1="127.52" x2="360.15" y2="127.52" gradientTransform="matrix(1 0 0 -1 -55.45 353.47)">
	<stop  offset="0" style="stop-color:#3DDEED"/>
	<stop  offset="1" style="stop-color:#3DDEED;stop-opacity:0"/>
</linearGradient>
<polygon class="st3" points="235,149.4 165.2,187.7 165.2,264.2 235,302.5 304.7,264.4 304.7,187.7 "/>
<polygon class="st1" points="235,149.4 165.2,187.7 165.2,264.2 235,302.5 304.7,264.4 304.7,187.7 "/>
<line class="st1" x1="304.7" y1="187.7" x2="235" y2="226"/>
<line class="st1" x1="235" y1="302.5" x2="235" y2="226"/>
<line class="st1" x1="235" y1="226" x2="165.2" y2="187.7"/>
<line class="st1" x1="165.2" y1="264.2" x2="107.9" y2="294"/>
<line class="st1" x1="360.6" y1="296.7" x2="304.7" y2="264.4"/>
<line class="st1" x1="165.2" y1="187.7" x2="109.5" y2="155.2"/>
<line class="st1" x1="362.2" y1="157.9" x2="304.7" y2="187.7"/>
<line class="st4" x1="429.1" y1="121.6" x2="362.2" y2="157.9"/>
<line class="st4" x1="427.2" y1="333.5" x2="360.6" y2="296.7"/>
<line class="st4" x1="235" y1="302.5" x2="233.1" y2="437.9"/>
<line class="st4" x1="107.9" y1="294" x2="41" y2="330.5"/>
<line class="st4" x1="109.5" y1="155.2" x2="42.9" y2="118.4"/>
<line class="st4" x1="236.8" y1="14" x2="235" y2="149.4"/>
</svg>
