<svg id="Layer_1" data-name="Layer 1" xmlns="http://www.w3.org/2000/svg" xmlns:xlink="http://www.w3.org/1999/xlink" viewBox="0 0 411.55 430.04"><defs><style>.cls-1{fill:url(#linear-gradient);}.cls-2,.cls-5,.cls-6{fill:none;stroke-miterlimit:10;}.cls-2,.cls-6{stroke:#000;}.cls-3{fill:#00c3df;}.cls-4{fill:url(#linear-gradient-2);}.cls-5{stroke:#00cfed;}.cls-6{stroke-dasharray:12 5;}</style><linearGradient id="linear-gradient" x1="55.95" y1="248.45" x2="444.05" y2="248.45" gradientTransform="matrix(1, 0, 0, -1, -55.45, 463.47)" gradientUnits="userSpaceOnUse"><stop offset="0" stop-color="#3ddeed"/><stop offset="1" stop-color="#3ddeed" stop-opacity="0"/></linearGradient><linearGradient id="linear-gradient-2" x1="180.15" y1="250.95" x2="319.65" y2="250.95" xlink:href="#linear-gradient"/></defs><title>fabricKube_logo</title><polygon class="cls-1" points="196.3 0.57 2.4 106.27 0.5 320.77 192.6 429.47 386.7 323.77 388.6 109.47 196.3 0.57"/><polygon class="cls-2" points="196.3 0.57 2.4 106.27 0.5 320.77 192.6 429.47 386.7 323.77 388.6 109.47 196.3 0.57"/><polygon class="cls-3" points="196.1 73.77 69 141.77 67.4 280.57 192.8 351.27 320.1 283.27 321.7 144.47 196.1 73.77"/><polygon class="cls-2" points="196.1 73.77 69 141.77 67.4 280.57 192.8 351.27 320.1 283.27 321.7 144.47 196.1 73.77"/><polygon class="cls-4" points="194.5 135.97 124.7 174.27 124.7 250.77 194.5 289.07 264.2 250.97 264.2 174.27 194.5 135.97"/><polygon class="cls-2" points="194.5 135.97 124.7 174.27 124.7 250.77 194.5 289.07 264.2 250.97 264.2 174.27 194.5 135.97"/><line class="cls-2" x1="264.2" y1="174.27" x2="194.5" y2="212.57"/><line class="cls-2" x1="194.5" y1="289.07" x2="194.5" y2="212.57"/><line class="cls-2" x1="194.5" y1="212.57" x2="124.7" y2="174.27"/><line class="cls-5" x1="411.55" y1="311.37" x2="410.95" y2="311.37"/><line class="cls-2" x1="124.7" y1="250.77" x2="67.4" y2="280.57"/><line class="cls-2" x1="320.1" y1="283.27" x2="264.2" y2="250.97"/><line class="cls-2" x1="124.7" y1="174.27" x2="69" y2="141.77"/><line class="cls-2" x1="321.7" y1="144.47" x2="264.2" y2="174.27"/><line class="cls-6" x1="388.6" y1="108.17" x2="321.7" y2="144.47"/><line class="cls-6" x1="386.7" y1="320.07" x2="320.1" y2="283.27"/><line class="cls-6" x1="194.5" y1="289.07" x2="192.6" y2="424.47"/><line class="cls-6" x1="67.4" y1="280.57" x2="0.5" y2="317.07"/><line class="cls-6" x1="69" y1="141.77" x2="2.4" y2="104.97"/><line class="cls-6" x1="196.3" y1="0.57" x2="194.5" y2="135.97"/></svg>